<svg width="33" height="43" viewBox="0 0 33 43" fill="none" xmlns="http://www.w3.org/2000/svg">
<path fill-rule="evenodd" clip-rule="evenodd" d="M5.63631 0.439202C3.21949 0.591067 1.30336 2.53536 1.1545 4.95237C0.627129 13.5151 0.278319 19.6636 0.997245 27.8215C1.20016 30.124 3.07831 31.9062 5.38472 32.0593C5.89483 32.0932 6.39541 32.1255 6.88711 32.1563C9.65245 32.8674 10.1226 35.6996 8.82439 37.9108C8.05004 39.2298 8.77221 41.107 10.3017 41.107C11.6835 41.107 12.4455 39.5638 11.7817 38.3519C10.4639 35.9462 10.467 33.077 14.5996 32.5293C17.6057 32.6185 20.3445 32.6169 23.0763 32.5134C25.0084 32.8829 24.5878 34.3882 24.0235 35.4812C23.583 36.3343 24.0656 37.4117 25.0256 37.4117C26.0232 37.4117 26.4699 36.2745 25.9921 35.3987C25.4595 34.4225 24.8321 32.735 27.0054 32.2946C27.4303 32.2636 27.8579 32.2301 28.2892 32.194C30.6871 31.9935 32.5175 29.9903 32.5777 27.5848C32.8267 17.6403 32.8137 11.7537 32.6108 4.99733C32.5377 2.5593 30.6387 0.563987 28.2057 0.391479C21.1747 -0.107031 15.3283 -0.169812 5.63631 0.439202ZM18.4281 8.67483C19.1269 8.30452 19.9033 8.11122 20.6913 8.11133C21.3356 8.11133 21.9736 8.24043 22.5689 8.49125C23.1642 8.74208 23.705 9.10972 24.1606 9.57318C24.6162 10.0366 24.9776 10.5869 25.2242 11.1924C25.4708 11.7979 25.5977 12.447 25.5977 13.1024C25.5977 17.8681 20.7082 21.8686 17.4914 24.1854C17.0041 24.5364 16.3499 24.5364 15.8625 24.1854C12.6457 21.8686 7.75627 17.8681 7.75627 13.1024C7.75627 11.7787 8.27319 10.5092 9.19332 9.57318C10.1134 8.63718 11.3614 8.11133 12.6627 8.11133C13.4506 8.11122 14.227 8.30452 14.9259 8.67483C15.6247 9.04513 16.2254 9.58152 16.677 10.2384C17.1285 9.58152 17.7292 9.04513 18.4281 8.67483Z" fill="url(#paint0_linear_3510_2902)"/>
<path d="M19.9764 40.3316C19.9764 40.3316 19.143 39.4614 18.9519 38.7056C18.9519 38.7056 18.9466 38.6907 18.9413 38.6808C18.936 38.6658 18.92 38.6559 18.9041 38.6559C18.8669 38.6559 18.8563 38.7106 18.8563 38.7106C18.8538 38.7226 18.8524 38.7288 18.8505 38.7349C18.8485 38.7412 18.8459 38.7474 18.8405 38.7601C18.6122 39.496 17.8318 40.3316 17.8318 40.3316C17.5929 40.5902 17.4442 40.9383 17.4442 41.3212C17.4496 42.1317 18.0972 42.788 18.9041 42.788C19.711 42.788 20.3587 42.1317 20.3587 41.3261C20.3587 40.9432 20.2153 40.5952 19.9764 40.3316Z" fill="url(#paint1_linear_3510_2902)"/>
<defs>
<linearGradient id="paint0_linear_3510_2902" x1="16.6621" y1="75.4712" x2="16.6621" y2="-29.3579" gradientUnits="userSpaceOnUse">
<stop stop-color="#3EB5F1"/>
<stop offset="1" stop-color="#46CBC6"/>
</linearGradient>
<linearGradient id="paint1_linear_3510_2902" x1="16.6621" y1="75.4712" x2="16.6621" y2="-29.3579" gradientUnits="userSpaceOnUse">
<stop stop-color="#3EB5F1"/>
<stop offset="1" stop-color="#46CBC6"/>
</linearGradient>
</defs>
</svg>
